{
	"asset":{
		"version":"2.0",
		"generator":"Created using the official Cinema 4D glTF Exporter 1.000x290161"
	},
	"scenes":[{
		"nodes":[0]
	}],
	"nodes":[{
		"name":"MoText",
		"mesh":0
	}],
	"meshes":[{
		"primitives":[{
			"attributes":{
				"POSITION":1,
				"NORMAL":2
			},
			"indices":0,
			"material":0
		}]
	}],
	"accessors":[{
		"bufferView":0,
		"componentType":5123,
		"type":"SCALAR",
		"count":1632,
		"byteOffset":0,
		"min":[0],
		"max":[863]
	},
	{
		"bufferView":1,
		"componentType":5126,
		"type":"VEC3",
		"count":864,
		"byteOffset":0,
		"min":[-338.6914367675781,
		74.51171875,
		-20.0],
		"max":[327.5195007324219,
		140.91796875,
		0.0]
	},
	{
		"bufferView":1,
		"componentType":5126,
		"type":"VEC3",
		"count":864,
		"byteOffset":12,
		"min":[-0.9997830390930176,
		-1.0,
		-1.0],
		"max":[0.9997866153717041,
		1.0,
		1.0]
	}],
	"bufferViews":[{
		"buffer":0,
		"byteOffset":0,
		"byteLength":3264,
		"target":34963
	},
	{
		"buffer":0,
		"byteOffset":3264,
		"byteLength":20736,
		"target":34962,
		"byteStride":24
	}],
	"buffers":[{
		"uri":"data:application/octet-stream;base64,",
		"byteLength":24000
	}],
	"materials":[{
		"pbrMetallicRoughness":{
			"baseColorFactor":[1.0,
			1.0,
			1.0,
			1.0],
			"metallicFactor":0.0,
			"roughnessFactor":0.5
		},
		"emissiveFactor":[0.0,
		0.0,
		0.0],
		"alphaMode":"OPAQUE",
		"doubleSided":false,
		"name":"default"
	}]
}